<svg width="48" height="49" viewBox="0 0 48 49" fill="none" xmlns="http://www.w3.org/2000/svg">
<path d="M0.63883 42.9998C0.39875 43.4971 0.607327 44.095 1.1047 44.335L9.20987 48.2474C9.70724 48.4875 10.3051 48.2789 10.5451 47.7815C10.7852 47.2841 10.5766 46.6863 10.0793 46.4462L2.87468 42.9686L6.3523 35.764C6.59238 35.2666 6.3838 34.6688 5.88643 34.4287C5.38906 34.1887 4.79123 34.3972 4.55115 34.8946L0.63883 42.9998ZM27.092 10.487L26.8246 11.4506L27.092 10.487ZM15.0127 36.4987L15.6571 37.2633L15.0127 36.4987ZM37.6195 14.5405L36.9389 13.8077L37.6195 14.5405ZM14.4095 24.3434L15.3433 23.9855L14.4095 24.3434ZM1.5394 43.4345C1.86882 44.3787 1.86886 44.3786 1.86889 44.3786C1.8689 44.3786 1.86894 44.3786 1.86897 44.3786C1.86903 44.3786 1.8691 44.3786 1.86918 44.3785C1.86934 44.3785 1.86954 44.3784 1.86978 44.3783C1.87027 44.3782 1.87093 44.3779 1.87175 44.3776C1.87339 44.3771 1.8757 44.3763 1.87866 44.3752C1.88459 44.3731 1.89314 44.3701 1.90425 44.3662C1.92647 44.3583 1.95891 44.3468 2.00102 44.3318C2.08524 44.3016 2.20816 44.2572 2.3653 44.1993C2.67954 44.0836 3.13096 43.914 3.68376 43.697L2.95291 41.8353C2.41479 42.0466 1.97673 42.2111 1.67424 42.3225C1.52302 42.3782 1.40575 42.4206 1.32688 42.4488C1.28744 42.4629 1.25761 42.4735 1.23794 42.4805C1.22811 42.4839 1.22082 42.4865 1.21613 42.4881C1.21379 42.489 1.2121 42.4895 1.21107 42.4899C1.21056 42.4901 1.21021 42.4902 1.21003 42.4903C1.20994 42.4903 1.20989 42.4903 1.20988 42.4903C1.20988 42.4903 1.20988 42.4903 1.2099 42.4903C1.20991 42.4903 1.20993 42.4903 1.20993 42.4903C1.20996 42.4903 1.20998 42.4903 1.5394 43.4345ZM7.23592 42.1976C8.34468 41.695 9.53584 41.1199 10.7113 40.4896L9.76609 38.727C8.63843 39.3317 7.48852 39.8872 6.41027 40.3759L7.23592 42.1976ZM14.0651 38.4694C14.6282 38.0813 15.1645 37.6785 15.6571 37.2633L14.3682 35.734C13.934 36.1 13.4506 36.4639 12.9301 36.8227L14.0651 38.4694ZM15.6571 37.2633C16.1767 36.8254 16.7161 36.3569 17.2688 35.8625L15.9354 34.3719C15.3966 34.8538 14.8721 35.3094 14.3682 35.734L15.6571 37.2633ZM20.3736 32.9388C21.3643 31.9584 22.3612 30.9248 23.3314 29.8608L21.8536 28.5132C20.9081 29.5501 19.9351 30.559 18.9668 31.5172L20.3736 32.9388ZM26.1184 26.614C27.0438 25.4613 27.908 24.2956 28.6716 23.1435L27.0045 22.0386C26.2805 23.1309 25.4538 24.2472 24.5588 25.362L26.1184 26.614ZM30.817 19.3317C31.506 17.7934 31.9407 16.2687 31.9319 14.8595L29.932 14.872C29.9383 15.8841 29.6198 17.1119 28.9918 18.5142L30.817 19.3317ZM29.5723 10.4807C28.9472 10.0765 28.2081 9.75896 27.3594 9.52342L26.8246 11.4506C27.5181 11.643 28.063 11.8864 28.4864 12.1602L29.5723 10.4807ZM27.3594 9.52342C26.6614 9.3297 25.9767 9.19882 25.3077 9.12668L25.0933 11.1152C25.6503 11.1752 26.2278 11.285 26.8246 11.4506L27.3594 9.52342ZM21.1103 9.4701C19.7075 9.87262 18.4507 10.5512 17.3671 11.4204L18.6185 12.9805C19.5088 12.2664 20.5303 11.7172 21.6619 11.3925L21.1103 9.4701ZM14.6227 14.5757C13.8981 15.7743 13.3749 17.0909 13.081 18.4436L15.0354 18.8682C15.2824 17.7313 15.7234 16.6208 16.3342 15.6104L14.6227 14.5757ZM12.9314 22.6365C13.0397 23.3396 13.2193 24.0321 13.4757 24.7012L15.3433 23.9855C15.1402 23.4556 14.9958 22.9015 14.908 22.332L12.9314 22.6365ZM13.4757 24.7012C13.7522 25.4225 14.1171 26.0396 14.5762 26.5423L16.053 25.1936C15.7897 24.9053 15.5458 24.5139 15.3433 23.9855L13.4757 24.7012ZM18.5997 28.0183C19.7877 27.9452 21.0609 27.5741 22.3517 27.0257L21.5697 25.185C20.3969 25.6832 19.3565 25.9679 18.4768 26.0221L18.5997 28.0183ZM25.6249 25.3226C26.6266 24.719 27.6431 24.041 28.6545 23.318L27.4915 21.6909C26.5133 22.3901 25.5409 23.0382 24.5927 23.6096L25.6249 25.3226ZM31.5302 21.1423C32.4765 20.3899 33.4048 19.6185 34.2982 18.8527L32.9967 17.3342C32.1189 18.0866 31.2096 18.842 30.2855 19.5768L31.5302 21.1423ZM36.984 16.4815C37.4404 16.0675 37.8801 15.6632 38.3 15.2732L36.9389 13.8077C36.5241 14.193 36.0902 14.5919 35.6401 15.0003L36.984 16.4815ZM38.3 15.2732C38.8196 14.7906 39.3144 14.3021 39.7852 13.8115L38.342 12.4268C37.8968 12.8908 37.4294 13.3523 36.9389 13.8077L38.3 15.2732ZM42.4931 10.658C43.4115 9.46371 44.193 8.30514 44.8487 7.23927L43.1453 6.19132C42.522 7.20438 41.7795 8.30508 40.9077 9.43886L42.4931 10.658ZM46.8348 3.58828C47.1165 2.99268 47.3228 2.51093 47.4599 2.1749C47.5284 2.00686 47.5796 1.87518 47.6143 1.78384C47.6317 1.73816 47.6449 1.70256 47.6541 1.67753C47.6587 1.66501 47.6622 1.65514 47.6648 1.64797C47.6661 1.64439 47.6672 1.64148 47.668 1.63925C47.6684 1.63814 47.6687 1.6372 47.669 1.63643C47.6691 1.63604 47.6692 1.6357 47.6693 1.6354C47.6694 1.63525 47.6694 1.63512 47.6695 1.63499C47.6695 1.63492 47.6695 1.63483 47.6695 1.6348C47.6696 1.63472 47.6696 1.63464 46.727 1.30069C45.7844 0.966751 45.7844 0.966674 45.7845 0.966602C45.7845 0.966578 45.7845 0.966506 45.7845 0.966465C45.7845 0.966381 45.7846 0.966305 45.7846 0.966241C45.7846 0.966116 45.7847 0.966032 45.7847 0.965988C45.7847 0.965904 45.7847 0.965992 45.7846 0.966245C45.7844 0.966757 45.784 0.967945 45.7833 0.969801C45.782 0.973512 45.7797 0.979899 45.7764 0.988898C45.7698 1.0069 45.7592 1.03535 45.7446 1.07375C45.7155 1.15057 45.6701 1.26719 45.6079 1.41969C45.4836 1.72473 45.2918 2.17297 45.0268 2.73307L46.8348 3.58828Z" fill="#FBDE37"/>
</svg>
