<svg width="46" height="54" viewBox="0 0 46 54" fill="none" xmlns="http://www.w3.org/2000/svg">
<path d="M45.3979 49.2898C45.5837 49.8099 45.3127 50.3821 44.7926 50.5679L36.3171 53.5956C35.797 53.7814 35.2248 53.5104 35.039 52.9903C34.8532 52.4702 35.1242 51.898 35.6443 51.7122L43.178 49.0209L40.4867 41.4871C40.3009 40.9671 40.5719 40.3948 41.092 40.209C41.6121 40.0232 42.1844 40.2942 42.3702 40.8143L45.3979 49.2898ZM21.3109 12.1326L21.4743 13.1192L21.3109 12.1326ZM31.0787 40.8232L30.3565 41.515L31.0787 40.8232ZM9.79317 15.2082L10.5478 14.552L9.79317 15.2082ZM33.0792 28.1186L32.1888 27.6634L33.0792 28.1186ZM44.4562 49.6262C44.0281 50.5299 44.0281 50.5299 44.0281 50.5299C44.0281 50.5299 44.028 50.5299 44.028 50.5299C44.0279 50.5298 44.0279 50.5298 44.0278 50.5298C44.0276 50.5297 44.0274 50.5296 44.0272 50.5295C44.0267 50.5293 44.0261 50.529 44.0252 50.5286C44.0236 50.5278 44.0213 50.5267 44.0183 50.5253C44.0123 50.5224 44.0037 50.5183 43.9925 50.513C43.9701 50.5022 43.9374 50.4865 43.8949 50.466C43.81 50.4249 43.686 50.3645 43.5275 50.2861C43.2106 50.1293 42.7557 49.9006 42.1997 49.6106L43.1244 47.8372C43.6665 48.1199 44.1087 48.3423 44.4143 48.4935C44.5671 48.5691 44.6857 48.6268 44.7656 48.6655C44.8055 48.6848 44.8357 48.6993 44.8557 48.7088C44.8657 48.7136 44.8731 48.7171 44.8779 48.7194C44.8802 48.7205 44.882 48.7214 44.883 48.7219C44.8835 48.7221 44.8839 48.7223 44.8841 48.7224C44.8842 48.7224 44.8842 48.7224 44.8843 48.7224C44.8843 48.7224 44.8843 48.7224 44.8842 48.7224C44.8842 48.7224 44.8842 48.7224 44.8842 48.7224C44.8842 48.7224 44.8842 48.7224 44.4562 49.6262ZM38.6383 47.637C37.5306 46.9848 36.3447 46.2472 35.1817 45.4535L36.3091 43.8016C37.4273 44.5646 38.5742 45.2783 39.6531 45.9136L38.6383 47.637ZM31.8898 42.9575C31.3428 42.4873 30.8259 42.005 30.3565 41.515L31.8008 40.1315C32.2175 40.5665 32.6858 41.0044 33.1936 41.4409L31.8898 42.9575ZM30.3565 41.515C29.8602 40.9968 29.3465 40.4443 28.8217 39.8631L30.3062 38.5228C30.8184 39.0902 31.3188 39.6282 31.8008 40.1315L30.3565 41.515ZM25.8899 36.4439C24.9596 35.303 24.029 34.1057 23.1298 32.8794L24.7426 31.6967C25.6201 32.8933 26.5296 34.0636 27.4399 35.1801L25.8899 36.4439ZM20.5684 29.1573C19.7263 27.8431 18.9503 26.5227 18.2784 25.228L20.0536 24.3067C20.6924 25.5377 21.4366 26.8051 22.2523 28.0783L20.5684 29.1573ZM16.4562 20.99C15.9065 19.3001 15.6236 17.6578 15.79 16.1894L17.7773 16.4145C17.6556 17.4886 17.8545 18.8232 18.3581 20.3713L16.4562 20.99ZM18.731 11.8978C19.4272 11.5464 20.2337 11.2974 21.1475 11.1461L21.4743 13.1192C20.7194 13.2442 20.1138 13.4402 19.632 13.6833L18.731 11.8978ZM21.1475 11.1461C21.8998 11.0215 22.6309 10.9612 23.3388 10.9607L23.3404 12.9607C22.7452 12.9611 22.1229 13.0118 21.4743 13.1192L21.1475 11.1461ZM27.6893 11.7893C29.1106 12.367 30.3487 13.217 31.3846 14.2472L29.9743 15.6653C29.1141 14.8098 28.0962 14.1136 26.9363 13.6421L27.6893 11.7893ZM33.9022 17.8551C34.5261 19.1903 34.9261 20.6265 35.0822 22.0747L33.0937 22.289C32.9613 21.0604 32.6211 19.8378 32.0902 18.7018L33.9022 17.8551ZM34.7695 26.4767C34.5776 27.1996 34.3124 27.9033 33.9697 28.5738L32.1888 27.6634C32.4637 27.1257 32.6793 26.5559 32.8365 25.9636L34.7695 26.4767ZM33.9697 28.5738C33.6008 29.2954 33.152 29.8968 32.6193 30.3679L31.2943 28.8697C31.6096 28.5909 31.914 28.2011 32.1888 27.6634L33.9697 28.5738ZM28.2726 31.453C27.0411 31.244 25.7514 30.7141 24.4598 29.9945L25.4333 28.2474C26.6128 28.9046 27.6803 29.3239 28.6072 29.4812L28.2726 31.453ZM21.2186 27.8412C20.2354 27.0954 19.2447 26.2696 18.2641 25.397L19.5936 23.9029C20.5437 24.7484 21.4938 25.5397 22.4273 26.2478L21.2186 27.8412ZM15.4891 22.7894C14.58 21.893 13.6917 20.9786 12.8394 20.0739L14.2952 18.7025C15.1334 19.5922 16.0043 20.4887 16.8933 21.3653L15.4891 22.7894ZM10.2851 17.2815C9.85221 16.7953 9.43579 16.3212 9.03855 15.8643L10.5478 14.552C10.9404 15.0036 11.3517 15.4718 11.7789 15.9516L10.2851 17.2815ZM9.03855 15.8643C8.54753 15.2996 8.0832 14.7315 7.64438 14.1639L9.22665 12.9406C9.64291 13.4791 10.0829 14.0174 10.5478 14.552L9.03855 15.8643ZM5.15702 10.5509C4.32745 9.1946 3.63746 7.89107 3.06906 6.69895L4.87437 5.8382C5.41608 6.97436 6.07346 8.2162 6.86319 9.50742L5.15702 10.5509ZM1.39507 2.64502C1.16636 1.98856 1.00403 1.46014 0.898092 1.09256C0.845112 0.908737 0.806207 0.765049 0.780138 0.665592C0.7671 0.615856 0.757272 0.577172 0.750495 0.550049C0.747101 0.536481 0.744475 0.525808 0.742592 0.518088C0.741651 0.514227 0.740895 0.511105 0.740321 0.508726C0.740033 0.507537 0.739793 0.506535 0.739595 0.505718C0.739499 0.505312 0.739415 0.504955 0.73934 0.504641C0.739302 0.504484 0.739265 0.504336 0.739234 0.504203C0.739218 0.504137 0.739196 0.504046 0.739189 0.504013C0.739171 0.503928 0.739147 0.503839 1.71192 0.272089C2.6847 0.040339 2.68468 0.0402572 2.68466 0.0401825C2.68465 0.0401581 2.68464 0.040084 2.68463 0.0400425C2.68461 0.0399582 2.68459 0.0398841 2.68457 0.0398188C2.68455 0.0396936 2.68452 0.0396118 2.68452 0.0395786C2.6845 0.0395127 2.68453 0.0396296 2.6846 0.0399345C2.68475 0.0405449 2.68508 0.0418914 2.68558 0.0439628C2.6866 0.0481185 2.68833 0.0551876 2.69081 0.0651185C2.69578 0.0849861 2.70372 0.116274 2.71478 0.158484C2.73691 0.242912 2.77154 0.370991 2.81987 0.538678C2.91654 0.874103 3.06795 1.36765 3.28373 1.98704L1.39507 2.64502Z" fill="#FBDE37"/>
</svg>
