<svg width="123" height="63" viewBox="0 0 123 63" fill="none" xmlns="http://www.w3.org/2000/svg">
<path fill-rule="evenodd" clip-rule="evenodd" d="M31.2428 0L32.2284 0.558002L46.3714 8.56526L60.5144 0.558002L61.5 0L62.4856 0.558002L76.6286 8.56525L90.7716 0.558002L91.7572 0L92.7428 0.558002L106.886 8.56525L121.029 0.558002L123 4.11669L107.871 12.6819L106.886 13.2399L105.9 12.6819L91.7572 4.67469L77.6142 12.6819L76.6286 13.2399L75.643 12.6819L61.5 4.67469L47.357 12.6819L46.3714 13.2399L45.3858 12.6819L31.2428 4.67469L17.0998 12.6819L16.1142 13.2399L15.1286 12.6819L0 4.11669L1.97117 0.558002L16.1142 8.56526L30.2572 0.558002L31.2428 0ZM31.2428 24.88L32.2284 25.438L46.3714 33.4453L60.5144 25.438L61.5 24.88L62.4856 25.438L76.6286 33.4453L90.7716 25.438L91.7572 24.88L92.7428 25.438L106.886 33.4453L121.029 25.438L123 28.9967L107.871 37.562L106.886 38.12L105.9 37.562L91.7572 29.5547L77.6142 37.562L76.6286 38.12L75.643 37.562L61.5 29.5547L47.357 37.562L46.3714 38.12L45.3858 37.562L31.2428 29.5547L17.0998 37.562L16.1142 38.12L15.1286 37.562L0 28.9967L1.97117 25.438L16.1142 33.4453L30.2572 25.438L31.2428 24.88ZM32.2284 50.3181L31.2428 49.7601L30.2572 50.3181L16.1142 58.3253L1.97117 50.3181L0 53.8767L15.1286 62.442L16.1142 63L17.0998 62.442L31.2428 54.4347L45.3858 62.442L46.3714 63L47.357 62.442L61.5 54.4347L75.643 62.442L76.6286 63L77.6142 62.442L91.7572 54.4347L105.9 62.442L106.886 63L107.871 62.442L123 53.8767L121.029 50.3181L106.886 58.3253L92.7428 50.3181L91.7572 49.7601L90.7716 50.3181L76.6286 58.3253L62.4856 50.3181L61.5 49.7601L60.5144 50.3181L46.3714 58.3253L32.2284 50.3181Z" fill="white"/>
</svg>
