<svg width="167" height="48" viewBox="0 0 167 48" fill="none" xmlns="http://www.w3.org/2000/svg">
<path d="M165.656 42.464C165.656 45.0219 163.541 47.094 160.924 47.094H6.08577C3.47076 47.094 1.34814 45.0219 1.34814 42.464V5.54131C1.34814 2.98454 3.47076 0.905273 6.08577 0.905273H160.923C163.541 0.905273 165.655 2.98454 165.655 5.54131L165.656 42.464Z" fill="black"/>
<path d="M160.425 0.961503C163.275 0.961503 165.593 3.222 165.593 6V42C165.593 44.778 163.275 47.0385 160.425 47.0385H6.57914C3.72991 47.0385 1.41145 44.778 1.41145 42V6C1.41145 3.222 3.72991 0.961503 6.57914 0.961503H160.425ZM160.425 2.53677e-06H6.57914C3.19606 2.53677e-06 0.425293 2.7015 0.425293 6V42C0.425293 45.2985 3.19606 48 6.57914 48H160.425C163.808 48 166.579 45.2985 166.579 42V6C166.579 2.7015 163.808 2.53677e-06 160.425 2.53677e-06Z" fill="#A6A6A6"/>
<path d="M37.5062 23.7404C37.4705 19.8728 40.7542 17.9912 40.9043 17.9036C39.0446 15.26 36.1622 14.8988 35.1492 14.87C32.7283 14.6216 30.38 16.2824 29.1468 16.2824C27.8889 16.2824 25.9899 14.894 23.9431 14.9348C21.3092 14.9744 18.8452 16.4612 17.4939 18.77C14.7049 23.4776 16.7849 30.3956 19.4569 34.2008C20.7936 36.0644 22.3554 38.1452 24.3997 38.072C26.3997 37.9916 27.1468 36.8288 29.5603 36.8288C31.9517 36.8288 32.6532 38.072 34.7382 38.0252C36.8846 37.9916 38.236 36.1532 39.5259 34.2728C41.0705 32.1368 41.6908 30.0332 41.7154 29.9252C41.6649 29.9084 37.5468 28.376 37.5062 23.7404Z" fill="white"/>
<path d="M33.5677 12.3668C34.6434 11.0552 35.3794 9.27076 35.1751 7.45996C33.6182 7.52716 31.6711 8.50996 30.5499 9.79276C29.5579 10.9232 28.6717 12.776 28.9006 14.5184C30.6496 14.6456 32.4452 13.658 33.5677 12.3668Z" fill="white"/>
<path d="M66.4498 37.8055H63.6547L62.1236 33.1147H56.8018L55.3433 37.8055H52.6221L57.8947 21.8359H61.1513L66.4498 37.8055ZM61.6621 31.1467L60.2775 26.9767C60.131 26.5507 59.8565 25.5475 59.4516 23.9683H59.4024C59.2411 24.6475 58.9815 25.6507 58.6245 26.9767L57.2645 31.1467H61.6621Z" fill="white"/>
<path d="M80.0093 31.9061C80.0093 33.8645 79.4665 35.4125 78.381 36.5489C77.4087 37.5605 76.2013 38.0657 74.76 38.0657C73.2044 38.0657 72.0868 37.5209 71.4062 36.4313H71.357V42.4973H68.733V30.0809C68.733 28.8497 68.6997 27.5861 68.6357 26.2901H70.9434L71.0899 28.1153H71.1391C72.0142 26.7401 73.3422 26.0537 75.1244 26.0537C76.5176 26.0537 77.6807 26.5901 78.6111 27.6641C79.5441 28.7393 80.0093 30.1529 80.0093 31.9061ZM77.3361 31.9997C77.3361 30.8789 77.0776 29.9549 76.5582 29.2277C75.9908 28.4693 75.229 28.0901 74.2739 28.0901C73.6265 28.0901 73.0382 28.3013 72.5127 28.7177C71.9859 29.1377 71.6413 29.6861 71.48 30.3653C71.3988 30.6821 71.3582 30.9413 71.3582 31.1453V33.0653C71.3582 33.9029 71.6216 34.6097 72.1484 35.1869C72.6751 35.7641 73.3594 36.0521 74.2013 36.0521C75.1896 36.0521 75.9588 35.6801 76.509 34.9385C77.0604 34.1957 77.3361 33.2165 77.3361 31.9997Z" fill="white"/>
<path d="M93.593 31.9061C93.593 33.8645 93.0502 35.4125 91.9635 36.5489C90.9924 37.5605 89.785 38.0657 88.3438 38.0657C86.7881 38.0657 85.6705 37.5209 84.9912 36.4313H84.9419V42.4973H82.3179V30.0809C82.3179 28.8497 82.2847 27.5861 82.2207 26.2901H84.5284L84.6749 28.1153H84.7241C85.5979 26.7401 86.9259 26.0537 88.7093 26.0537C90.1013 26.0537 91.2644 26.5901 92.1973 27.6641C93.1266 28.7393 93.593 30.1529 93.593 31.9061ZM90.9198 31.9997C90.9198 30.8789 90.6601 29.9549 90.1407 29.2277C89.5733 28.4693 88.8139 28.0901 87.8576 28.0901C87.209 28.0901 86.6219 28.3013 86.0952 28.7177C85.5684 29.1377 85.225 29.6861 85.0638 30.3653C84.9838 30.6821 84.9419 30.9413 84.9419 31.1453V33.0653C84.9419 33.9029 85.2053 34.6097 85.7296 35.1869C86.2564 35.7629 86.9407 36.0521 87.785 36.0521C88.7733 36.0521 89.5426 35.6801 90.0927 34.9385C90.6441 34.1957 90.9198 33.2165 90.9198 31.9997Z" fill="white"/>
<path d="M108.781 33.3268C108.781 34.6852 108.297 35.7904 107.326 36.6436C106.259 37.576 104.773 38.0416 102.865 38.0416C101.102 38.0416 99.6892 37.7104 98.6196 37.0468L99.2276 34.9144C100.38 35.5936 101.644 35.9344 103.021 35.9344C104.009 35.9344 104.778 35.716 105.331 35.2816C105.881 34.8472 106.156 34.264 106.156 33.5368C106.156 32.8888 105.929 32.3428 105.475 31.9C105.023 31.4572 104.269 31.0456 103.215 30.6652C100.348 29.6224 98.915 28.0948 98.915 26.086C98.915 24.7732 99.4172 23.6968 100.423 22.8592C101.425 22.0204 102.761 21.6016 104.433 21.6016C105.923 21.6016 107.161 21.8548 108.149 22.36L107.493 24.4456C106.57 23.956 105.527 23.7112 104.359 23.7112C103.436 23.7112 102.714 23.9332 102.197 24.3748C101.761 24.7696 101.541 25.2508 101.541 25.8208C101.541 26.452 101.791 26.974 102.293 27.3844C102.73 27.7636 103.524 28.174 104.676 28.6168C106.085 29.17 107.121 29.8168 107.786 30.5584C108.45 31.2976 108.781 32.2228 108.781 33.3268Z" fill="white"/>
<path d="M117.456 28.2101H114.564V33.8009C114.564 35.2229 115.074 35.9333 116.095 35.9333C116.564 35.9333 116.953 35.8937 117.261 35.8145L117.333 37.7573C116.816 37.9457 116.136 38.0405 115.293 38.0405C114.256 38.0405 113.446 37.7321 112.862 37.1165C112.28 36.4997 111.987 35.4653 111.987 34.0121V28.2077H110.264V26.2877H111.987V24.1793L114.564 23.4209V26.2877H117.456V28.2101Z" fill="white"/>
<path d="M130.506 31.9527C130.506 33.7227 129.987 35.1759 128.951 36.3123C127.864 37.4823 126.422 38.0655 124.623 38.0655C122.89 38.0655 121.511 37.5051 120.482 36.3843C119.453 35.2635 118.938 33.8487 118.938 32.1435C118.938 30.3591 119.468 28.8975 120.53 27.7611C121.59 26.6235 123.02 26.0547 124.818 26.0547C126.551 26.0547 127.945 26.6151 128.998 27.7371C130.004 28.8255 130.506 30.2307 130.506 31.9527ZM127.784 32.0355C127.784 30.9735 127.551 30.0627 127.08 29.3031C126.53 28.3839 125.743 27.9255 124.724 27.9255C123.67 27.9255 122.868 28.3851 122.318 29.3031C121.847 30.0639 121.614 30.9891 121.614 32.0835C121.614 33.1455 121.847 34.0563 122.318 34.8147C122.886 35.7339 123.678 36.1923 124.701 36.1923C125.703 36.1923 126.489 35.7243 127.057 34.7907C127.54 34.0167 127.784 33.0963 127.784 32.0355Z" fill="white"/>
<path d="M139.036 28.5401C138.776 28.4933 138.499 28.4693 138.209 28.4693C137.285 28.4693 136.572 28.8089 136.069 29.4893C135.633 30.0893 135.413 30.8477 135.413 31.7633V37.8053H132.791L132.815 29.9165C132.815 28.5893 132.782 27.3809 132.717 26.2913H135.002L135.098 28.4945H135.171C135.448 27.7373 135.885 27.1277 136.483 26.6705C137.068 26.2589 137.699 26.0537 138.38 26.0537C138.622 26.0537 138.841 26.0705 139.036 26.1005V28.5401Z" fill="white"/>
<path d="M150.771 31.503C150.771 31.9614 150.741 32.3478 150.675 32.6634H142.803C142.834 33.801 143.214 34.671 143.946 35.271C144.609 35.8074 145.467 36.0762 146.52 36.0762C147.686 36.0762 148.749 35.895 149.706 35.5314L150.117 37.3074C148.999 37.7826 147.68 38.019 146.157 38.019C144.326 38.019 142.888 37.4934 141.842 36.4434C140.798 35.3934 140.275 33.9834 140.275 32.2146C140.275 30.4782 140.762 29.0322 141.735 27.879C142.754 26.6478 144.131 26.0322 145.864 26.0322C147.566 26.0322 148.855 26.6478 149.73 27.879C150.423 28.857 150.771 30.0666 150.771 31.503ZM148.269 30.8394C148.286 30.081 148.115 29.4258 147.76 28.8726C147.306 28.161 146.608 27.8058 145.669 27.8058C144.811 27.8058 144.113 28.1526 143.58 28.8486C143.143 29.4018 142.883 30.0654 142.803 30.8382H148.269V30.8394Z" fill="white"/>
<path d="M60.7943 12.0104C60.7943 13.4228 60.3599 14.486 59.4922 15.2C58.6885 15.8588 57.5463 16.1888 56.0669 16.1888C55.3334 16.1888 54.7057 16.1576 54.1802 16.0952V8.37804C54.8657 8.27004 55.6042 8.21484 56.4017 8.21484C57.8109 8.21484 58.8731 8.51364 59.5894 9.11124C60.3919 9.78684 60.7943 10.7528 60.7943 12.0104ZM59.4343 12.0452C59.4343 11.1296 59.1857 10.4276 58.6885 9.93804C58.1913 9.44964 57.4651 9.20484 56.5088 9.20484C56.1026 9.20484 55.7568 9.23124 55.47 9.28644V15.1532C55.6288 15.1772 55.9193 15.188 56.3414 15.188C57.3285 15.188 58.0903 14.9204 58.627 14.3852C59.1636 13.85 59.4343 13.07 59.4343 12.0452Z" fill="white"/>
<path d="M68.0052 13.2445C68.0052 14.1145 67.7504 14.8273 67.2409 15.3865C66.7068 15.9613 65.9991 16.2481 65.1154 16.2481C64.2637 16.2481 63.5855 15.9733 63.0797 15.4213C62.5751 14.8705 62.3228 14.1757 62.3228 13.3381C62.3228 12.4621 62.5824 11.7433 63.1043 11.1853C63.6261 10.6273 64.3277 10.3477 65.2114 10.3477C66.0631 10.3477 66.7474 10.6225 67.2655 11.1733C67.7578 11.7085 68.0052 12.3997 68.0052 13.2445ZM66.6674 13.2853C66.6674 12.7633 66.5517 12.3157 66.3215 11.9425C66.0508 11.4913 65.6655 11.2657 65.1646 11.2657C64.6465 11.2657 64.2526 11.4913 63.9818 11.9425C63.7504 12.3157 63.636 12.7705 63.636 13.3081C63.636 13.8301 63.7517 14.2777 63.9818 14.6509C64.2612 15.1021 64.6501 15.3277 65.1523 15.3277C65.6446 15.3277 66.0311 15.0985 66.3092 14.6389C66.548 14.2585 66.6674 13.8073 66.6674 13.2853Z" fill="white"/>
<path d="M77.6742 10.4629L75.8588 16.1197H74.6773L73.9253 13.6633C73.7345 13.0501 73.5794 12.4405 73.4588 11.8357H73.4354C73.3234 12.4573 73.1684 13.0657 72.969 13.6633L72.1702 16.1197H70.9751L69.2681 10.4629H70.5936L71.2496 13.1521C71.4084 13.7881 71.5388 14.3941 71.6435 14.9677H71.6668C71.7628 14.4949 71.9216 13.8925 72.1456 13.1641L72.969 10.4641H74.0201L74.809 13.1065C74.9998 13.7509 75.1548 14.3713 75.2742 14.9689H75.3099C75.3973 14.3869 75.529 13.7665 75.7038 13.1065L76.4078 10.4641H77.6742V10.4629Z" fill="white"/>
<path d="M84.3609 16.1194H83.0711V12.8794C83.0711 11.881 82.6821 11.3818 81.9018 11.3818C81.5191 11.3818 81.2102 11.5186 80.9702 11.7934C80.7326 12.0682 80.612 12.3922 80.612 12.763V16.1182H79.3222V12.079C79.3222 11.5822 79.3062 11.0434 79.2754 10.4602H80.4089L80.4692 11.3446H80.5049C80.6551 11.0698 80.8791 10.843 81.1732 10.6618C81.5228 10.4506 81.9141 10.3438 82.3425 10.3438C82.884 10.3438 83.3345 10.5142 83.6926 10.8562C84.1381 11.275 84.3609 11.9002 84.3609 12.7306V16.1194Z" fill="white"/>
<path d="M87.918 16.1196H86.6294V7.86719H87.918V16.1196Z" fill="white"/>
<path d="M95.5121 13.2445C95.5121 14.1145 95.2573 14.8273 94.7477 15.3865C94.2136 15.9613 93.5047 16.2481 92.6222 16.2481C91.7693 16.2481 91.0911 15.9733 90.5865 15.4213C90.0819 14.8705 89.8296 14.1757 89.8296 13.3381C89.8296 12.4621 90.0893 11.7433 90.6111 11.1853C91.133 10.6273 91.8345 10.3477 92.717 10.3477C93.5699 10.3477 94.253 10.6225 94.7724 11.1733C95.2647 11.7085 95.5121 12.3997 95.5121 13.2445ZM94.173 13.2853C94.173 12.7633 94.0573 12.3157 93.8271 11.9425C93.5576 11.4913 93.1711 11.2657 92.6714 11.2657C92.152 11.2657 91.7582 11.4913 91.4887 11.9425C91.2573 12.3157 91.1428 12.7705 91.1428 13.3081C91.1428 13.8301 91.2585 14.2777 91.4887 14.6509C91.7681 15.1021 92.157 15.3277 92.6591 15.3277C93.1514 15.3277 93.5367 15.0985 93.8148 14.6389C94.0548 14.2585 94.173 13.8073 94.173 13.2853Z" fill="white"/>
<path d="M101.754 16.1197H100.596L100.5 15.4681H100.464C100.068 15.9877 99.5032 16.2481 98.7697 16.2481C98.222 16.2481 97.7789 16.0765 97.4454 15.7357C97.1426 15.4261 96.9912 15.0409 96.9912 14.5837C96.9912 13.8925 97.2866 13.3657 97.8811 13.0009C98.4743 12.6361 99.3088 12.4573 100.383 12.4657V12.3601C100.383 11.6149 99.982 11.2429 99.1783 11.2429C98.606 11.2429 98.1014 11.3833 97.6657 11.6617L97.4035 10.8361C97.9426 10.5109 98.6084 10.3477 99.3937 10.3477C100.91 10.3477 101.671 11.1277 101.671 12.6877V14.7709C101.671 15.3361 101.699 15.7861 101.754 16.1197ZM100.415 14.1757V13.3033C98.9924 13.2793 98.2811 13.6597 98.2811 14.4433C98.2811 14.7385 98.3623 14.9593 98.5284 15.1069C98.6946 15.2545 98.9063 15.3277 99.1586 15.3277C99.4417 15.3277 99.7063 15.2401 99.9475 15.0661C100.19 14.8909 100.339 14.6689 100.394 14.3965C100.408 14.3353 100.415 14.2609 100.415 14.1757Z" fill="white"/>
<path d="M109.083 16.1196H107.939L107.878 15.2112H107.843C107.477 15.9024 106.854 16.248 105.979 16.248C105.28 16.248 104.698 15.9804 104.237 15.4452C103.775 14.91 103.545 14.2152 103.545 13.362C103.545 12.4464 103.795 11.7048 104.297 11.1384C104.783 10.6104 105.379 10.3464 106.088 10.3464C106.867 10.3464 107.412 10.602 107.722 11.1144H107.747V7.86719H109.038V14.5956C109.038 15.1464 109.053 15.654 109.083 16.1196ZM107.747 13.734V12.7908C107.747 12.6276 107.734 12.4956 107.711 12.3948C107.638 12.0924 107.482 11.838 107.245 11.6328C107.005 11.4276 106.715 11.3244 106.382 11.3244C105.901 11.3244 105.524 11.5104 105.247 11.8836C104.973 12.2568 104.834 12.7332 104.834 13.3152C104.834 13.8744 104.965 14.328 105.23 14.6772C105.509 15.0492 105.886 15.2352 106.357 15.2352C106.781 15.2352 107.119 15.0804 107.376 14.7696C107.625 14.4828 107.747 14.1372 107.747 13.734Z" fill="white"/>
<path d="M120.115 13.2445C120.115 14.1145 119.86 14.8273 119.351 15.3865C118.817 15.9613 118.11 16.2481 117.225 16.2481C116.375 16.2481 115.697 15.9733 115.19 15.4213C114.685 14.8705 114.433 14.1757 114.433 13.3381C114.433 12.4621 114.692 11.7433 115.214 11.1853C115.736 10.6273 116.438 10.3477 117.322 10.3477C118.173 10.3477 118.858 10.6225 119.375 11.1733C119.868 11.7085 120.115 12.3997 120.115 13.2445ZM118.778 13.2853C118.778 12.7633 118.663 12.3157 118.433 11.9425C118.161 11.4913 117.777 11.2657 117.274 11.2657C116.758 11.2657 116.364 11.4913 116.092 11.9425C115.86 12.3157 115.746 12.7705 115.746 13.3081C115.746 13.8301 115.862 14.2777 116.092 14.6509C116.371 15.1021 116.76 15.3277 117.262 15.3277C117.754 15.3277 118.142 15.0985 118.42 14.6389C118.658 14.2585 118.778 13.8073 118.778 13.2853Z" fill="white"/>
<path d="M127.05 16.1194H125.762V12.8794C125.762 11.881 125.373 11.3818 124.591 11.3818C124.208 11.3818 123.899 11.5186 123.661 11.7934C123.422 12.0682 123.302 12.3922 123.302 12.763V16.1182H122.011V12.079C122.011 11.5822 121.997 11.0434 121.966 10.4602H123.098L123.158 11.3446H123.194C123.346 11.0698 123.57 10.843 123.862 10.6618C124.213 10.4506 124.603 10.3438 125.033 10.3438C125.573 10.3438 126.024 10.5142 126.382 10.8562C126.829 11.275 127.05 11.9002 127.05 12.7306V16.1194Z" fill="white"/>
<path d="M135.731 11.4045H134.31V14.1525C134.31 14.8509 134.563 15.2001 135.062 15.2001C135.294 15.2001 135.486 15.1809 135.637 15.1413L135.67 16.0953C135.416 16.1889 135.081 16.2357 134.669 16.2357C134.159 16.2357 133.763 16.0845 133.476 15.7821C133.188 15.4797 133.045 14.9709 133.045 14.2569V11.4045H132.197V10.4625H133.045V9.42571L134.309 9.05371V10.4613H135.73V11.4045H135.731Z" fill="white"/>
<path d="M142.559 16.1196H141.268V12.9036C141.268 11.8896 140.879 11.382 140.1 11.382C139.502 11.382 139.093 11.676 138.869 12.264C138.831 12.3876 138.809 12.5388 138.809 12.7164V16.1184H137.52V7.86719H138.809V11.2764H138.833C139.239 10.656 139.822 10.3464 140.576 10.3464C141.11 10.3464 141.552 10.5168 141.903 10.8588C142.34 11.2848 142.559 11.9184 142.559 12.756V16.1196Z" fill="white"/>
<path d="M149.603 13.0237C149.603 13.2493 149.586 13.4389 149.555 13.5937H145.687C145.704 14.1529 145.889 14.5789 146.247 14.8741C146.574 15.1381 146.996 15.2701 147.513 15.2701C148.085 15.2701 148.607 15.1813 149.077 15.0025L149.279 15.8761C148.729 16.1089 148.082 16.2253 147.332 16.2253C146.434 16.2253 145.726 15.9673 145.214 15.4513C144.7 14.9353 144.445 14.2429 144.445 13.3741C144.445 12.5209 144.682 11.8105 145.161 11.2441C145.661 10.6393 146.337 10.3369 147.189 10.3369C148.024 10.3369 148.658 10.6393 149.086 11.2441C149.432 11.7241 149.603 12.3181 149.603 13.0237ZM148.372 12.6985C148.382 12.3253 148.297 12.0037 148.122 11.7325C147.898 11.3833 147.557 11.2081 147.096 11.2081C146.675 11.2081 146.332 11.3785 146.069 11.7205C145.855 11.9929 145.729 12.3181 145.687 12.6985H148.372Z" fill="white"/>
</svg>
