<svg width="167" height="48" viewBox="0 0 167 48" fill="none" xmlns="http://www.w3.org/2000/svg">
<path d="M160.28 48H6.64539C3.26696 48 0.5 45.2985 0.5 42V6C0.5 2.7015 3.26696 2.53677e-06 6.64539 2.53677e-06H160.28C163.658 2.53677e-06 166.425 2.7015 166.425 6V42C166.425 45.2985 163.658 48 160.28 48Z" fill="black"/>
<path d="M160.28 0.961503C163.125 0.961503 165.441 3.222 165.441 6V42C165.441 44.778 163.125 47.0385 160.28 47.0385H6.64539C3.80007 47.0385 1.4848 44.778 1.4848 42V6C1.4848 3.222 3.80007 0.961503 6.64539 0.961503H160.28ZM160.28 2.53677e-06H6.64539C3.26696 2.53677e-06 0.5 2.7015 0.5 6V42C0.5 45.2985 3.26696 48 6.64539 48H160.28C163.658 48 166.425 45.2985 166.425 42V6C166.425 2.7015 163.658 2.53677e-06 160.28 2.53677e-06Z" fill="#A6A6A6"/>
<path d="M58.7795 12.2928C58.7795 13.2948 58.4723 14.0973 57.867 14.6958C57.171 15.4053 56.2646 15.7623 55.1538 15.7623C54.0922 15.7623 53.1857 15.3993 52.4421 14.6838C51.697 13.9578 51.3252 13.0668 51.3252 12.0003C51.3252 10.9338 51.697 10.0428 52.4421 9.32278C53.1857 8.60128 54.0922 8.23828 55.1538 8.23828C55.6823 8.23828 56.1862 8.34478 56.6671 8.54278C57.1464 8.74228 57.5366 9.01228 57.8193 9.34528L57.1771 9.97828C56.684 9.40978 56.0126 9.12928 55.1538 9.12928C54.3795 9.12928 53.7081 9.39328 53.1381 9.92578C52.5742 10.4598 52.2916 11.1513 52.2916 12.0003C52.2916 12.8493 52.5742 13.5468 53.1381 14.0808C53.7081 14.6073 54.3795 14.8773 55.1538 14.8773C55.9757 14.8773 56.6671 14.6073 57.2125 14.0748C57.572 13.7223 57.7763 13.2363 57.8301 12.6153H55.1538V11.7483H58.7242C58.7673 11.9358 58.7795 12.1173 58.7795 12.2928Z" fill="white" stroke="white" stroke-width="0.16" stroke-miterlimit="10"/>
<path d="M64.4444 9.28682H61.0906V11.5668H64.1141V12.4338H61.0906V14.7138H64.4444V15.5973H60.1411V8.40332H64.4444V9.28682Z" fill="white" stroke="white" stroke-width="0.16" stroke-miterlimit="10"/>
<path d="M68.4417 15.5973H67.4922V9.28682H65.4351V8.40332H70.5004V9.28682H68.4417V15.5973Z" fill="white" stroke="white" stroke-width="0.16" stroke-miterlimit="10"/>
<path d="M74.1665 15.5973V8.40332H75.1144V15.5973H74.1665Z" fill="white" stroke="white" stroke-width="0.16" stroke-miterlimit="10"/>
<path d="M79.3162 15.5973H78.3744V9.28682H76.3096V8.40332H81.381V9.28682H79.3162V15.5973Z" fill="white" stroke="white" stroke-width="0.16" stroke-miterlimit="10"/>
<path d="M90.9707 14.6718C90.244 15.3993 89.3437 15.7623 88.2698 15.7623C87.1897 15.7623 86.2895 15.3993 85.5628 14.6718C84.8376 13.9458 84.4766 13.0548 84.4766 12.0003C84.4766 10.9458 84.8376 10.0548 85.5628 9.32878C86.2895 8.60128 87.1897 8.23828 88.2698 8.23828C89.3376 8.23828 90.2379 8.60128 90.9646 9.33478C91.6959 10.0668 92.0569 10.9518 92.0569 12.0003C92.0569 13.0548 91.6959 13.9458 90.9707 14.6718ZM86.2649 14.0688C86.8118 14.6073 87.477 14.8773 88.2698 14.8773C89.0564 14.8773 89.7278 14.6073 90.2686 14.0688C90.814 13.5303 91.0905 12.8388 91.0905 12.0003C91.0905 11.1618 90.814 10.4703 90.2686 9.93178C89.7278 9.39328 89.0564 9.12328 88.2698 9.12328C87.477 9.12328 86.8118 9.39328 86.2649 9.93178C85.7195 10.4703 85.4429 11.1618 85.4429 12.0003C85.4429 12.8388 85.7195 13.5303 86.2649 14.0688Z" fill="white" stroke="white" stroke-width="0.16" stroke-miterlimit="10"/>
<path d="M93.3892 15.5973V8.40332H94.5414L98.1242 13.9983H98.1657L98.1242 12.6153V8.40332H99.0721V15.5973H98.0827L94.3309 9.72632H94.2895L94.3309 11.1153V15.5973H93.3892Z" fill="white" stroke="white" stroke-width="0.16" stroke-miterlimit="10"/>
<path d="M84.2432 26.1026C81.3565 26.1026 78.9982 28.2476 78.9982 31.2071C78.9982 34.1426 81.3565 36.3101 84.2432 36.3101C87.1362 36.3101 89.4945 34.1426 89.4945 31.2071C89.4945 28.2476 87.1362 26.1026 84.2432 26.1026ZM84.2432 34.3001C82.6593 34.3001 81.2965 33.0236 81.2965 31.2071C81.2965 29.3666 82.6593 28.1126 84.2432 28.1126C85.8272 28.1126 87.1961 29.3666 87.1961 31.2071C87.1961 33.0236 85.8272 34.3001 84.2432 34.3001ZM72.799 26.1026C69.9061 26.1026 67.5539 28.2476 67.5539 31.2071C67.5539 34.1426 69.9061 36.3101 72.799 36.3101C75.6904 36.3101 78.0441 34.1426 78.0441 31.2071C78.0441 28.2476 75.6904 26.1026 72.799 26.1026ZM72.799 34.3001C71.2135 34.3001 69.8461 33.0236 69.8461 31.2071C69.8461 29.3666 71.2135 28.1126 72.799 28.1126C74.383 28.1126 75.7457 29.3666 75.7457 31.2071C75.7457 33.0236 74.383 34.3001 72.799 34.3001ZM59.1808 27.6671V29.8361H64.4858C64.3307 31.0481 63.9158 31.9391 63.2798 32.5601C62.5055 33.3101 61.2995 34.1426 59.1808 34.1426C55.9161 34.1426 53.3596 31.5701 53.3596 28.3826C53.3596 25.1951 55.9161 22.6226 59.1808 22.6226C60.9461 22.6226 62.2305 23.2961 63.1784 24.1691L64.7439 22.6406C63.4181 21.4046 61.6543 20.4551 59.1808 20.4551C54.7039 20.4551 50.9414 24.0116 50.9414 28.3826C50.9414 32.7536 54.7039 36.3101 59.1808 36.3101C61.6006 36.3101 63.4181 35.5361 64.8469 34.0841C66.311 32.6546 66.7673 30.6446 66.7673 29.0216C66.7673 28.5176 66.7243 28.0541 66.6475 27.6671H59.1808ZM114.867 29.3486C114.436 28.2071 113.104 26.1026 110.39 26.1026C107.702 26.1026 105.463 28.1711 105.463 31.2071C105.463 34.0661 107.679 36.3101 110.648 36.3101C113.05 36.3101 114.436 34.8806 115.006 34.0481L113.223 32.8886C112.629 33.7376 111.819 34.3001 110.648 34.3001C109.485 34.3001 108.651 33.7796 108.117 32.7536L115.108 29.9291L114.867 29.3486ZM107.739 31.0481C107.679 29.0801 109.304 28.0721 110.469 28.0721C111.381 28.0721 112.156 28.5176 112.414 29.1551L107.739 31.0481ZM102.056 35.9996H104.354V20.9996H102.056V35.9996ZM98.2916 27.2396H98.2148C97.6986 26.6426 96.7138 26.1026 95.4663 26.1026C92.8483 26.1026 90.4547 28.3466 90.4547 31.2236C90.4547 34.0841 92.8483 36.3101 95.4663 36.3101C96.7138 36.3101 97.6986 35.7656 98.2148 35.1506H98.2916V35.8826C98.2916 37.8341 97.2238 38.8826 95.5016 38.8826C94.0974 38.8826 93.2263 37.8926 92.8668 37.0601L90.868 37.8746C91.4441 39.2276 92.9697 40.8926 95.5016 40.8926C98.1963 40.8926 100.47 39.3446 100.47 35.5781V26.4131H98.2916V27.2396ZM95.6629 34.3001C94.0789 34.3001 92.7531 33.0056 92.7531 31.2236C92.7531 29.4251 94.0789 28.1126 95.6629 28.1126C97.2238 28.1126 98.4545 29.4251 98.4545 31.2236C98.4545 33.0056 97.2238 34.3001 95.6629 34.3001ZM125.628 20.9996H120.131V35.9996H122.423V30.3161H125.628C128.174 30.3161 130.67 28.5176 130.67 25.6571C130.67 22.7981 128.167 20.9996 125.628 20.9996ZM125.688 28.2296H122.423V23.0861H125.688C127.399 23.0861 128.376 24.4736 128.376 25.6571C128.376 26.8181 127.399 28.2296 125.688 28.2296ZM139.857 26.0741C138.201 26.0741 136.479 26.7881 135.771 28.3706L137.805 29.2031C138.243 28.3706 139.048 28.1006 139.899 28.1006C141.088 28.1006 142.294 28.7981 142.313 30.0296V30.1871C141.898 29.9531 141.01 29.6066 139.917 29.6066C137.727 29.6066 135.494 30.7841 135.494 32.9816C135.494 34.9916 137.289 36.2861 139.306 36.2861C140.848 36.2861 141.7 35.6066 142.234 34.8161H142.313V35.9756H144.526V30.2216C144.526 27.5621 142.492 26.0741 139.857 26.0741ZM139.581 34.2941C138.831 34.2941 137.786 33.9311 137.786 33.0236C137.786 31.8626 139.089 31.4171 140.217 31.4171C141.226 31.4171 141.7 31.6346 142.313 31.9211C142.133 33.3101 140.908 34.2941 139.581 34.2941ZM152.592 26.4026L149.957 32.9051H149.879L147.155 26.4026H144.683L148.776 35.4896L146.441 40.5461H148.836L155.143 26.4026H152.592ZM131.93 35.9996H134.228V20.9996H131.93V35.9996Z" fill="white"/>
<path d="M13.3254 9.04701C12.9643 9.41601 12.7554 9.99051 12.7554 10.7345V37.2725C12.7554 38.0165 12.9643 38.591 13.3254 38.96L13.4145 39.041L28.6458 24.176V23.825L13.4145 8.96001L13.3254 9.04701Z" fill="url(#paint0_linear_62_8671)"/>
<path d="M33.7175 29.1328L28.646 24.1753V23.8243L33.7236 18.8668L33.8373 18.9313L39.8506 22.2718C41.5667 23.2198 41.5667 24.7798 39.8506 25.7338L33.8373 29.0683L33.7175 29.1328Z" fill="url(#paint1_linear_62_8671)"/>
<path d="M33.8374 29.068L28.6461 23.9995L13.3257 38.959C13.8957 39.544 14.8252 39.6145 15.8822 39.0295L33.8374 29.068Z" fill="url(#paint2_linear_62_8671)"/>
<path d="M33.8374 18.9315L15.8822 8.97C14.8252 8.391 13.8957 8.4615 13.3257 9.0465L28.6461 24L33.8374 18.9315Z" fill="url(#paint3_linear_62_8671)"/>
<defs>
<linearGradient id="paint0_linear_62_8671" x1="27.2934" y1="37.5489" x2="7.16033" y2="16.9279" gradientUnits="userSpaceOnUse">
<stop stop-color="#00A0FF"/>
<stop offset="0.0066" stop-color="#00A1FF"/>
<stop offset="0.2601" stop-color="#00BEFF"/>
<stop offset="0.5122" stop-color="#00D2FF"/>
<stop offset="0.7604" stop-color="#00DFFF"/>
<stop offset="1" stop-color="#00E3FF"/>
</linearGradient>
<linearGradient id="paint1_linear_62_8671" x1="42.0852" y1="23.9981" x2="12.3454" y2="23.9981" gradientUnits="userSpaceOnUse">
<stop stop-color="#FFE000"/>
<stop offset="0.4087" stop-color="#FFBD00"/>
<stop offset="0.7754" stop-color="#FFA500"/>
<stop offset="1" stop-color="#FF9C00"/>
</linearGradient>
<linearGradient id="paint2_linear_62_8671" x1="31.0146" y1="21.2442" x2="3.71243" y2="-6.71953" gradientUnits="userSpaceOnUse">
<stop stop-color="#FF3A44"/>
<stop offset="1" stop-color="#C31162"/>
</linearGradient>
<linearGradient id="paint3_linear_62_8671" x1="9.46921" y1="47.7886" x2="21.6608" y2="35.3016" gradientUnits="userSpaceOnUse">
<stop stop-color="#32A071"/>
<stop offset="0.0685" stop-color="#2DA771"/>
<stop offset="0.4762" stop-color="#15CF74"/>
<stop offset="0.8009" stop-color="#06E775"/>
<stop offset="1" stop-color="#00F076"/>
</linearGradient>
</defs>
</svg>
