<svg width="173" height="22" viewBox="0 0 173 22" fill="none" xmlns="http://www.w3.org/2000/svg">
<path fill-rule="evenodd" clip-rule="evenodd" d="M9.51247 2.94168L8.9195 1.9076C8.7882 1.67807 8.86734 1.38425 9.09637 1.25206L11.16 0.0635559C11.3885 -0.0680329 11.6823 0.0112807 11.8136 0.24081L12.4065 1.27489C14.0727 4.16624 14.9181 7.40549 14.9181 10.6501C14.9181 13.8636 14.0889 17.0968 12.4065 20.017L11.8082 21.0553C11.6769 21.2842 11.3825 21.3635 11.1541 21.2313L7.14181 18.9096L7.14062 18.9114L4.66085 17.4723C4.43242 17.3395 4.35387 17.0451 4.48637 16.8162L5.08413 15.7815C6.01704 14.1622 6.46132 12.3974 6.46132 10.6592C6.46132 9.53194 6.27605 8.41494 5.91932 7.35381C5.89054 7.26969 5.83178 7.20841 5.74844 7.17656C5.66511 7.14532 5.58057 7.15193 5.50322 7.19699L4.44081 7.81167C4.3233 7.87957 4.26993 8.01596 4.3101 8.14575C4.55892 8.95511 4.68723 9.80112 4.68723 10.6531C4.68663 12.0952 4.3203 13.5559 3.55047 14.8928L2.9575 15.9263C2.8262 16.1558 2.53242 16.2352 2.30339 16.1036L0.239709 14.9151C0.0112775 14.7835 -0.0678642 14.4891 0.0634389 14.2595L0.656401 13.2254C1.12466 12.4131 1.34709 11.5268 1.34709 10.6531C1.34709 9.74584 1.10847 8.85116 0.657001 8.06523L0.064039 7.03115C-0.0672641 6.80222 0.0118773 6.5078 0.240908 6.37621L1.29073 5.77114L6.72992 2.62443C6.95895 2.49164 7.25273 2.57095 7.38464 2.80048L7.98 3.83637C9.17132 5.90874 9.80085 8.26772 9.80085 10.6592C9.80085 12.3626 9.48249 14.0823 8.82237 15.7256C8.76841 15.8596 8.82058 16.0104 8.94528 16.0825L9.98971 16.687C10.0641 16.7303 10.145 16.7381 10.2259 16.7104C10.3069 16.6828 10.3662 16.6275 10.3992 16.5476C11.1792 14.6585 11.5653 12.6534 11.5653 10.6501C11.5653 7.9691 10.8741 5.30548 9.51247 2.94168Z" fill="#FAD810"/>
<path d="M36.3499 16.0004H33.7849L29.4949 9.50535V16.0004H26.9299V5.47035H29.4949L33.7849 11.9954V5.47035H36.3499V16.0004Z" fill="white"/>
<path d="M42.0192 16.1204C41.1992 16.1204 40.4592 15.9454 39.7992 15.5954C39.1492 15.2454 38.6342 14.7454 38.2542 14.0954C37.8842 13.4454 37.6992 12.6854 37.6992 11.8154C37.6992 10.9554 37.8892 10.2004 38.2692 9.55035C38.6492 8.89035 39.1692 8.38535 39.8292 8.03535C40.4892 7.68535 41.2292 7.51035 42.0492 7.51035C42.8692 7.51035 43.6092 7.68535 44.2692 8.03535C44.9292 8.38535 45.4492 8.89035 45.8292 9.55035C46.2092 10.2004 46.3992 10.9554 46.3992 11.8154C46.3992 12.6754 46.2042 13.4354 45.8142 14.0954C45.4342 14.7454 44.9092 15.2454 44.2392 15.5954C43.5792 15.9454 42.8392 16.1204 42.0192 16.1204ZM42.0192 13.9004C42.5092 13.9004 42.9242 13.7204 43.2642 13.3604C43.6142 13.0004 43.7892 12.4854 43.7892 11.8154C43.7892 11.1454 43.6192 10.6304 43.2792 10.2704C42.9492 9.91035 42.5392 9.73035 42.0492 9.73035C41.5492 9.73035 41.1342 9.91035 40.8042 10.2704C40.4742 10.6204 40.3092 11.1354 40.3092 11.8154C40.3092 12.4854 40.4692 13.0004 40.7892 13.3604C41.1192 13.7204 41.5292 13.9004 42.0192 13.9004Z" fill="white"/>
<path d="M49.05 6.76035C48.6 6.76035 48.23 6.63035 47.94 6.37035C47.66 6.10035 47.52 5.77035 47.52 5.38035C47.52 4.98035 47.66 4.65035 47.94 4.39035C48.23 4.12035 48.6 3.98535 49.05 3.98535C49.49 3.98535 49.85 4.12035 50.13 4.39035C50.42 4.65035 50.565 4.98035 50.565 5.38035C50.565 5.77035 50.42 6.10035 50.13 6.37035C49.85 6.63035 49.49 6.76035 49.05 6.76035ZM50.325 7.63035V16.0004H47.76V7.63035H50.325Z" fill="white"/>
<path d="M51.6738 11.8154C51.6738 10.9454 51.8488 10.1854 52.1988 9.53535C52.5588 8.88535 53.0538 8.38535 53.6838 8.03535C54.3238 7.68535 55.0538 7.51035 55.8738 7.51035C56.9238 7.51035 57.7988 7.78535 58.4988 8.33535C59.2088 8.88535 59.6738 9.66035 59.8938 10.6604H57.1638C56.9338 10.0204 56.4888 9.70035 55.8288 9.70035C55.3588 9.70035 54.9838 9.88535 54.7038 10.2554C54.4238 10.6154 54.2838 11.1354 54.2838 11.8154C54.2838 12.4954 54.4238 13.0204 54.7038 13.3904C54.9838 13.7504 55.3588 13.9304 55.8288 13.9304C56.4888 13.9304 56.9338 13.6104 57.1638 12.9704H59.8938C59.6738 13.9504 59.2088 14.7204 58.4988 15.2804C57.7888 15.8404 56.9138 16.1204 55.8738 16.1204C55.0538 16.1204 54.3238 15.9454 53.6838 15.5954C53.0538 15.2454 52.5588 14.7454 52.1988 14.0954C51.8488 13.4454 51.6738 12.6854 51.6738 11.8154Z" fill="white"/>
<path d="M69.1559 11.6804C69.1559 11.9204 69.1409 12.1704 69.1109 12.4304H63.3059C63.3459 12.9504 63.5109 13.3504 63.8009 13.6304C64.1009 13.9004 64.4659 14.0354 64.8959 14.0354C65.5359 14.0354 65.9809 13.7654 66.2309 13.2254H68.9609C68.8209 13.7754 68.5659 14.2704 68.1959 14.7104C67.8359 15.1504 67.3809 15.4954 66.8309 15.7454C66.2809 15.9954 65.6659 16.1204 64.9859 16.1204C64.1659 16.1204 63.4359 15.9454 62.7959 15.5954C62.1559 15.2454 61.6559 14.7454 61.2959 14.0954C60.9359 13.4454 60.7559 12.6854 60.7559 11.8154C60.7559 10.9454 60.9309 10.1854 61.2809 9.53535C61.6409 8.88535 62.1409 8.38535 62.7809 8.03535C63.4209 7.68535 64.1559 7.51035 64.9859 7.51035C65.7959 7.51035 66.5159 7.68035 67.1459 8.02035C67.7759 8.36035 68.2659 8.84535 68.6159 9.47535C68.9759 10.1054 69.1559 10.8404 69.1559 11.6804ZM66.5309 11.0054C66.5309 10.5654 66.3809 10.2154 66.0809 9.95535C65.7809 9.69535 65.4059 9.56535 64.9559 9.56535C64.5259 9.56535 64.1609 9.69035 63.8609 9.94035C63.5709 10.1904 63.3909 10.5454 63.3209 11.0054H66.5309Z" fill="white"/>
<path d="M81.189 7.54035C82.229 7.54035 83.054 7.85535 83.664 8.48535C84.284 9.11535 84.594 9.99035 84.594 11.1104V16.0004H82.044V11.4554C82.044 10.9154 81.899 10.5004 81.609 10.2104C81.329 9.91035 80.939 9.76035 80.439 9.76035C79.939 9.76035 79.544 9.91035 79.254 10.2104C78.974 10.5004 78.834 10.9154 78.834 11.4554V16.0004H76.284V11.4554C76.284 10.9154 76.139 10.5004 75.849 10.2104C75.569 9.91035 75.179 9.76035 74.679 9.76035C74.179 9.76035 73.784 9.91035 73.494 10.2104C73.214 10.5004 73.074 10.9154 73.074 11.4554V16.0004H70.509V7.63035H73.074V8.68035C73.334 8.33035 73.674 8.05535 74.094 7.85535C74.514 7.64535 74.989 7.54035 75.519 7.54035C76.149 7.54035 76.709 7.67535 77.199 7.94535C77.699 8.21535 78.089 8.60035 78.369 9.10035C78.659 8.64035 79.054 8.26535 79.554 7.97535C80.054 7.68535 80.599 7.54035 81.189 7.54035Z" fill="white"/>
<path d="M85.8779 11.8004C85.8779 10.9404 86.0379 10.1854 86.3579 9.53535C86.6879 8.88535 87.1329 8.38535 87.6929 8.03535C88.2529 7.68535 88.8779 7.51035 89.5679 7.51035C90.1579 7.51035 90.6729 7.63035 91.1129 7.87035C91.5629 8.11035 91.9079 8.42535 92.1479 8.81535V7.63035H94.7129V16.0004H92.1479V14.8154C91.8979 15.2054 91.5479 15.5204 91.0979 15.7604C90.6579 16.0004 90.1429 16.1204 89.5529 16.1204C88.8729 16.1204 88.2529 15.9454 87.6929 15.5954C87.1329 15.2354 86.6879 14.7304 86.3579 14.0804C86.0379 13.4204 85.8779 12.6604 85.8779 11.8004ZM92.1479 11.8154C92.1479 11.1754 91.9679 10.6704 91.6079 10.3004C91.2579 9.93035 90.8279 9.74535 90.3179 9.74535C89.8079 9.74535 89.3729 9.93035 89.0129 10.3004C88.6629 10.6604 88.4879 11.1604 88.4879 11.8004C88.4879 12.4404 88.6629 12.9504 89.0129 13.3304C89.3729 13.7004 89.8079 13.8854 90.3179 13.8854C90.8279 13.8854 91.2579 13.7004 91.6079 13.3304C91.9679 12.9604 92.1479 12.4554 92.1479 11.8154Z" fill="white"/>
<path d="M101.684 16.0004L99.1336 12.4904V16.0004H96.5686V4.90035H99.1336V11.0354L101.669 7.63035H104.834L101.354 11.8304L104.864 16.0004H101.684Z" fill="white"/>
<path d="M113.731 11.6804C113.731 11.9204 113.716 12.1704 113.686 12.4304H107.881C107.921 12.9504 108.086 13.3504 108.376 13.6304C108.676 13.9004 109.041 14.0354 109.471 14.0354C110.111 14.0354 110.556 13.7654 110.806 13.2254H113.536C113.396 13.7754 113.141 14.2704 112.771 14.7104C112.411 15.1504 111.956 15.4954 111.406 15.7454C110.856 15.9954 110.241 16.1204 109.561 16.1204C108.741 16.1204 108.011 15.9454 107.371 15.5954C106.731 15.2454 106.231 14.7454 105.871 14.0954C105.511 13.4454 105.331 12.6854 105.331 11.8154C105.331 10.9454 105.506 10.1854 105.856 9.53535C106.216 8.88535 106.716 8.38535 107.356 8.03535C107.996 7.68535 108.731 7.51035 109.561 7.51035C110.371 7.51035 111.091 7.68035 111.721 8.02035C112.351 8.36035 112.841 8.84535 113.191 9.47535C113.551 10.1054 113.731 10.8404 113.731 11.6804ZM111.106 11.0054C111.106 10.5654 110.956 10.2154 110.656 9.95535C110.356 9.69535 109.981 9.56535 109.531 9.56535C109.101 9.56535 108.736 9.69035 108.436 9.94035C108.146 10.1904 107.966 10.5454 107.896 11.0054H111.106Z" fill="white"/>
<path d="M117.649 9.02535C117.949 8.56535 118.324 8.20535 118.774 7.94535C119.224 7.67535 119.724 7.54035 120.274 7.54035V10.2554H119.569C118.929 10.2554 118.449 10.3954 118.129 10.6754C117.809 10.9454 117.649 11.4254 117.649 12.1154V16.0004H115.084V7.63035H117.649V9.02535Z" fill="white"/>
<path d="M128.489 16.1054C127.719 16.1054 127.029 15.9804 126.419 15.7304C125.809 15.4804 125.319 15.1104 124.949 14.6204C124.589 14.1304 124.399 13.5404 124.379 12.8504H127.109C127.149 13.2404 127.284 13.5404 127.514 13.7504C127.744 13.9504 128.044 14.0504 128.414 14.0504C128.794 14.0504 129.094 13.9654 129.314 13.7954C129.534 13.6154 129.644 13.3704 129.644 13.0604C129.644 12.8004 129.554 12.5854 129.374 12.4154C129.204 12.2454 128.989 12.1054 128.729 11.9954C128.479 11.8854 128.119 11.7604 127.649 11.6204C126.969 11.4104 126.414 11.2004 125.984 10.9904C125.554 10.7804 125.184 10.4704 124.874 10.0604C124.564 9.65035 124.409 9.11535 124.409 8.45535C124.409 7.47535 124.764 6.71035 125.474 6.16035C126.184 5.60035 127.109 5.32035 128.249 5.32035C129.409 5.32035 130.344 5.60035 131.054 6.16035C131.764 6.71035 132.144 7.48035 132.194 8.47035H129.419C129.399 8.13035 129.274 7.86535 129.044 7.67535C128.814 7.47535 128.519 7.37535 128.159 7.37535C127.849 7.37535 127.599 7.46035 127.409 7.63035C127.219 7.79035 127.124 8.02535 127.124 8.33535C127.124 8.67535 127.284 8.94035 127.604 9.13035C127.924 9.32035 128.424 9.52535 129.104 9.74535C129.784 9.97535 130.334 10.1954 130.754 10.4054C131.184 10.6154 131.554 10.9204 131.864 11.3204C132.174 11.7204 132.329 12.2354 132.329 12.8654C132.329 13.4654 132.174 14.0104 131.864 14.5004C131.564 14.9904 131.124 15.3804 130.544 15.6704C129.964 15.9604 129.279 16.1054 128.489 16.1054Z" fill="white"/>
<path d="M138.572 13.8254V16.0004H137.267C136.337 16.0004 135.612 15.7754 135.092 15.3254C134.572 14.8654 134.312 14.1204 134.312 13.0904V9.76035H133.292V7.63035H134.312V5.59035H136.877V7.63035H138.557V9.76035H136.877V13.1204C136.877 13.3704 136.937 13.5504 137.057 13.6604C137.177 13.7704 137.377 13.8254 137.657 13.8254H138.572Z" fill="white"/>
<path d="M148.266 7.63035V16.0004H145.701V14.8604C145.441 15.2304 145.086 15.5304 144.636 15.7604C144.196 15.9804 143.706 16.0904 143.166 16.0904C142.526 16.0904 141.961 15.9504 141.471 15.6704C140.981 15.3804 140.601 14.9654 140.331 14.4254C140.061 13.8854 139.926 13.2504 139.926 12.5204V7.63035H142.476V12.1754C142.476 12.7354 142.621 13.1704 142.911 13.4804C143.201 13.7904 143.591 13.9454 144.081 13.9454C144.581 13.9454 144.976 13.7904 145.266 13.4804C145.556 13.1704 145.701 12.7354 145.701 12.1754V7.63035H148.266Z" fill="white"/>
<path d="M149.599 11.8004C149.599 10.9404 149.759 10.1854 150.079 9.53535C150.409 8.88535 150.854 8.38535 151.414 8.03535C151.974 7.68535 152.599 7.51035 153.289 7.51035C153.839 7.51035 154.339 7.62535 154.789 7.85535C155.249 8.08535 155.609 8.39535 155.869 8.78535V4.90035H158.434V16.0004H155.869V14.8004C155.629 15.2004 155.284 15.5204 154.834 15.7604C154.394 16.0004 153.879 16.1204 153.289 16.1204C152.599 16.1204 151.974 15.9454 151.414 15.5954C150.854 15.2354 150.409 14.7304 150.079 14.0804C149.759 13.4204 149.599 12.6604 149.599 11.8004ZM155.869 11.8154C155.869 11.1754 155.689 10.6704 155.329 10.3004C154.979 9.93035 154.549 9.74535 154.039 9.74535C153.529 9.74535 153.094 9.93035 152.734 10.3004C152.384 10.6604 152.209 11.1604 152.209 11.8004C152.209 12.4404 152.384 12.9504 152.734 13.3304C153.094 13.7004 153.529 13.8854 154.039 13.8854C154.549 13.8854 154.979 13.7004 155.329 13.3304C155.689 12.9604 155.869 12.4554 155.869 11.8154Z" fill="white"/>
<path d="M161.579 6.76035C161.129 6.76035 160.759 6.63035 160.469 6.37035C160.189 6.10035 160.049 5.77035 160.049 5.38035C160.049 4.98035 160.189 4.65035 160.469 4.39035C160.759 4.12035 161.129 3.98535 161.579 3.98535C162.019 3.98535 162.379 4.12035 162.659 4.39035C162.949 4.65035 163.094 4.98035 163.094 5.38035C163.094 5.77035 162.949 6.10035 162.659 6.37035C162.379 6.63035 162.019 6.76035 161.579 6.76035ZM162.854 7.63035V16.0004H160.289V7.63035H162.854Z" fill="white"/>
<path d="M168.523 16.1204C167.703 16.1204 166.963 15.9454 166.303 15.5954C165.653 15.2454 165.138 14.7454 164.758 14.0954C164.388 13.4454 164.203 12.6854 164.203 11.8154C164.203 10.9554 164.393 10.2004 164.773 9.55035C165.153 8.89035 165.673 8.38535 166.333 8.03535C166.993 7.68535 167.733 7.51035 168.553 7.51035C169.373 7.51035 170.113 7.68535 170.773 8.03535C171.433 8.38535 171.953 8.89035 172.333 9.55035C172.713 10.2004 172.903 10.9554 172.903 11.8154C172.903 12.6754 172.708 13.4354 172.318 14.0954C171.938 14.7454 171.413 15.2454 170.743 15.5954C170.083 15.9454 169.343 16.1204 168.523 16.1204ZM168.523 13.9004C169.013 13.9004 169.428 13.7204 169.768 13.3604C170.118 13.0004 170.293 12.4854 170.293 11.8154C170.293 11.1454 170.123 10.6304 169.783 10.2704C169.453 9.91035 169.043 9.73035 168.553 9.73035C168.053 9.73035 167.638 9.91035 167.308 10.2704C166.978 10.6204 166.813 11.1354 166.813 11.8154C166.813 12.4854 166.973 13.0004 167.293 13.3604C167.623 13.7204 168.033 13.9004 168.523 13.9004Z" fill="white"/>
</svg>
