<svg width="148" height="42" viewBox="0 0 148 42" fill="none" xmlns="http://www.w3.org/2000/svg">
<path fillRule="evenodd" clipRule="evenodd" d="M18.8956 5.73276L17.7351 3.71753C17.4782 3.27023 17.633 2.69763 18.0813 2.44002L22.1199 0.123858C22.5669 -0.132583 23.1419 0.0219839 23.3988 0.469291L24.5593 2.48451C27.82 8.11917 29.4744 14.4318 29.4744 20.755C29.4744 27.0173 27.8517 33.3182 24.5593 39.0091L23.3883 41.0325C23.1313 41.4787 22.5552 41.6332 22.1082 41.3756L14.2562 36.851L14.2538 36.8545L9.40088 34.0501C8.95383 33.7913 8.80013 33.2175 9.05943 32.7714L10.2293 30.755C12.055 27.5993 12.9244 24.1602 12.9244 20.7726C12.9244 18.5758 12.5619 16.399 11.8637 14.3311C11.8074 14.1672 11.6924 14.0477 11.5293 13.9857C11.3662 13.9248 11.2008 13.9377 11.0494 14.0255L8.97026 15.2234C8.74029 15.3557 8.63586 15.6215 8.71447 15.8744C9.20141 17.4517 9.45251 19.1004 9.45251 20.7609C9.45133 23.5712 8.73442 26.4178 7.22785 29.0231L6.06741 31.0372C5.81045 31.4845 5.23551 31.6391 4.7873 31.3826L0.748654 29.0665C0.301611 28.81 0.14673 28.2363 0.403692 27.789L1.56413 25.7737C2.48051 24.1906 2.91582 22.4634 2.91582 20.7609C2.91582 18.9927 2.44883 17.2491 1.5653 15.7175L0.404866 13.7023C0.147904 13.2562 0.302785 12.6824 0.751002 12.426L2.80552 11.2468L13.4501 5.11449C13.8983 4.85571 14.4732 5.01027 14.7314 5.45758L15.8965 7.47631C18.2279 11.515 19.4599 16.1121 19.4599 20.7726C19.4599 24.0922 18.8369 27.4435 17.545 30.6461C17.4394 30.9072 17.5415 31.2011 17.7856 31.3416L19.8295 32.5196C19.975 32.6039 20.1334 32.6192 20.2918 32.5653C20.4502 32.5114 20.5664 32.4037 20.6309 32.248C22.1574 28.5665 22.9131 24.659 22.9131 20.755C22.9131 15.5302 21.5602 10.3393 18.8956 5.73276V5.73276Z" fill="white"/>
<path d="M130.583 18.1496H141.146C141.084 16.6508 140.568 15.4482 139.597 14.5419C138.627 13.6355 137.39 13.1835 135.889 13.1835C134.385 13.1835 133.165 13.6519 132.226 14.5887C131.287 15.5255 130.74 16.7128 130.583 18.1496ZM123.775 20.8206C123.775 17.1028 124.91 14.0184 127.179 11.5665C129.448 9.11446 132.32 7.88847 135.795 7.88847C139.551 7.88847 142.477 9.0524 144.575 11.3791C146.672 13.7058 147.72 16.9002 147.72 20.9611C147.72 21.2351 147.717 21.4798 147.711 21.6941C147.701 22.0688 147.393 22.3662 147.018 22.3662H130.395C130.457 24.022 131.084 25.3732 132.273 26.4201C133.462 27.4658 134.965 27.9892 136.78 27.9892C139.136 27.9892 140.99 27.1672 142.343 25.5231C142.579 25.2362 143.001 25.1859 143.298 25.4107L146.514 27.844C146.809 28.0676 146.877 28.4821 146.667 28.7878C145.946 29.8381 144.841 30.8604 143.353 31.8545C141.6 33.0266 139.378 33.6121 136.686 33.6121C132.805 33.6121 129.683 32.4177 127.32 30.0278C124.956 27.6379 123.775 24.5688 123.775 20.8206V20.8206Z" fill="white"/>
<path d="M114.895 27.8955C116.537 27.8955 118.132 27.3522 119.681 26.2679C119.867 26.1379 120.084 26.1063 120.299 26.1777C120.514 26.2491 120.669 26.4037 120.739 26.6191L122.02 30.522C122.115 30.8112 122.017 31.1145 121.772 31.2948C119.673 32.8393 117.255 33.6121 114.52 33.6121C110.702 33.6121 107.563 32.4095 105.106 30.0044C102.649 27.5992 101.42 24.5384 101.42 20.8206C101.42 17.1028 102.664 14.0184 105.153 11.5665C107.641 9.11446 110.748 7.88847 114.473 7.88847C117.178 7.88847 119.621 8.66013 121.803 10.2046C122.056 10.385 122.158 10.6964 122.058 10.9903L120.711 14.9915C120.637 15.2093 120.478 15.3639 120.258 15.4318C120.038 15.4997 119.82 15.4611 119.635 15.3229C118.115 14.1777 116.457 13.6051 114.66 13.6051C112.626 13.6051 110.99 14.2925 109.755 15.666C108.518 17.0407 107.9 18.7433 107.9 20.7737C107.9 22.8662 108.557 24.577 109.872 25.9037C111.186 27.2316 112.86 27.8955 114.895 27.8955V27.8955Z" fill="white"/>
<path d="M91.8833 32.31V9.19059C91.8833 8.80886 92.1954 8.49738 92.5779 8.49738H97.6691C98.0504 8.49738 98.3625 8.80886 98.3625 9.19059V32.31C98.3625 32.6918 98.0504 33.0032 97.6691 33.0032H92.5779C92.1954 33.0032 91.8833 32.6918 91.8833 32.31Z" fill="white"/>
<path d="M68.9186 20.8206C68.9186 22.8826 69.5523 24.577 70.8206 25.9037C72.0878 27.2316 73.6918 27.8955 75.6325 27.8955C77.6049 27.8955 79.2241 27.2316 80.4925 25.9037C81.7597 24.577 82.3933 22.8826 82.3933 20.8206C82.3933 18.728 81.7515 17.0021 80.469 15.6426C79.1854 14.2843 77.5732 13.6051 75.6325 13.6051C73.6918 13.6051 72.0878 14.2843 70.8206 15.6426C69.5523 17.0021 68.9186 18.728 68.9186 20.8206V20.8206ZM66.1719 30.0044C63.6832 27.5992 62.4395 24.5384 62.4395 20.8206C62.4395 17.1028 63.6996 14.0184 66.2188 11.5665C68.7391 9.11446 71.8766 7.88847 75.6325 7.88847C79.3884 7.88847 82.5341 9.12266 85.0697 11.5899C87.6053 14.0571 88.8725 17.1344 88.8725 20.8206C88.8725 24.5384 87.6288 27.5992 85.1401 30.0044C82.6514 32.4095 79.4822 33.6121 75.6325 33.6121C71.8145 33.6121 68.6605 32.4095 66.1719 30.0044V30.0044Z" fill="white"/>
<path d="M53.1371 32.31V18.6566C53.1371 16.6227 51.4745 14.9634 49.4364 14.9634H44.6867V32.31C44.6867 32.6918 44.3746 33.0032 43.9921 33.0032H38.901C38.5185 33.0032 38.2075 32.6918 38.2075 32.31V14.9634V9.19059C38.2075 8.80886 38.5185 8.49738 38.901 8.49738H44.6867H50.1334C55.3559 8.49738 59.6163 12.7491 59.6163 17.9623V32.31C59.6163 32.6918 59.3054 33.0032 58.9229 33.0032H53.8317C53.4492 33.0032 53.1371 32.6918 53.1371 32.31V32.31Z" fill="white"/>
</svg>
