<svg width="127" height="36" viewBox="0 0 127 36" fill="none" xmlns="http://www.w3.org/2000/svg">
<path fill-rule="evenodd" clip-rule="evenodd" d="M15.9099 6.32551L14.9181 4.71495C14.6977 4.35811 14.8302 3.90002 15.2125 3.69428L18.6648 1.84261C19.0471 1.63687 19.5378 1.76064 19.7582 2.11908L20.75 3.72964C23.536 8.23343 24.9496 13.2805 24.9496 18.334C24.9496 23.3409 23.5635 28.3768 20.75 32.9256L19.7496 34.5442C19.5275 34.901 19.0368 35.0231 18.6545 34.8174L11.9444 31.2009L11.9427 31.2041L7.79471 28.9618C7.41246 28.7561 7.2816 28.2964 7.50372 27.9396L8.50412 26.3274C10.0641 23.8055 10.8062 21.0569 10.8062 18.3485C10.8062 16.5933 10.4963 14.8525 9.89883 13.2001C9.85234 13.0683 9.75247 12.9719 9.61472 12.9237C9.47525 12.8739 9.33234 12.8851 9.2032 12.9542L7.42795 13.9122C7.22994 14.0183 7.14212 14.2305 7.20756 14.433C7.62425 15.6932 7.83948 17.0112 7.83948 18.3389C7.83776 20.5859 7.2265 22.8603 5.93854 24.9434L4.94675 26.554C4.72635 26.9108 4.23562 27.0346 3.85337 26.8305L0.40103 24.9788C0.018776 24.7731 -0.113806 24.315 0.106592 23.9581L1.09839 22.346C1.88011 21.081 2.25376 19.7003 2.25376 18.3389C2.25376 16.926 1.85429 15.5308 1.09839 14.3076L0.106592 12.697C-0.112084 12.3402 0.0204995 11.8805 0.402753 11.6764L2.15906 10.7345L11.2557 5.83206C11.6379 5.62471 12.1304 5.74847 12.3508 6.1053L13.346 7.71908C15.3382 10.9483 16.392 14.6227 16.3903 18.3485C16.3903 21.0022 15.8582 23.6801 14.7545 26.2406C14.6649 26.4495 14.751 26.6842 14.9594 26.7967L16.7071 27.7386C16.8311 27.8061 16.9671 27.8174 17.1031 27.7756C17.2374 27.7322 17.3373 27.6454 17.3924 27.5216C18.6975 24.5786 19.3433 21.4555 19.3433 18.334C19.3433 14.1581 18.1862 10.0079 15.9099 6.32551Z" fill="#FAD810"/>
<path fill-rule="evenodd" clip-rule="evenodd" d="M16.1037 5.23498L15.1119 3.50968C14.8915 3.12742 15.0241 2.63669 15.4064 2.41629L18.8587 0.432703C19.241 0.212305 19.7317 0.344888 19.9521 0.728864L20.9439 2.45417C23.7299 7.27884 25.1435 12.6855 25.1435 18.099C25.1435 23.4626 23.7574 28.8573 20.9439 33.7301L19.9435 35.4641C19.7214 35.8463 19.2306 35.9772 18.8484 35.7568L12.1383 31.8826L12.1365 31.886L7.98857 29.484C7.60631 29.2636 7.47545 28.7712 7.69757 28.3889L8.69797 26.6619C10.258 23.9603 11.0001 21.0159 11.0001 18.1145C11.0001 16.2343 10.6902 14.3695 10.0927 12.5994C10.0462 12.4582 9.94633 12.3549 9.80858 12.3032C9.66911 12.2499 9.5262 12.2619 9.39706 12.336L7.62181 13.3622C7.42379 13.4758 7.33598 13.7031 7.40141 13.9201C7.8181 15.27 8.03334 16.6819 8.03334 18.1042C8.03162 20.5114 7.42035 22.9478 6.1324 25.1793L5.14061 26.9047C4.92021 27.2869 4.42947 27.4195 4.04722 27.2008L0.594878 25.2172C0.212624 24.9968 0.0800415 24.5061 0.30044 24.1238L1.29224 22.3968C2.07396 21.0417 2.44761 19.5626 2.44761 18.1042C2.44761 16.5907 2.04813 15.0961 1.29224 13.7858L0.30044 12.0605C0.0817634 11.6782 0.214347 11.1858 0.596601 10.9671L2.35291 9.95806L11.4495 4.70637C11.8318 4.48425 12.3242 4.61683 12.5446 4.99909L13.5399 6.72784C15.5321 10.1871 16.5858 14.1233 16.5841 18.1145C16.5841 20.9573 16.0521 23.826 14.9483 26.5689C14.8588 26.7927 14.9449 27.0441 15.1532 27.1647L16.9009 28.1737C17.0249 28.246 17.1609 28.258 17.297 28.2133C17.4313 28.1668 17.5311 28.0738 17.5862 27.9412C18.8914 24.7885 19.5371 21.4429 19.5371 18.099C19.5371 13.6256 18.38 9.17978 16.1037 5.23498Z" fill="#FAD810"/>
<path d="M56.5031 26.0199C54.3766 23.9605 53.3142 21.3381 53.3142 18.1561C53.3142 14.9724 54.3904 12.331 56.5444 10.2321C58.6968 8.13139 61.3794 7.08105 64.589 7.08105C67.7985 7.08105 70.4864 8.13829 72.6542 10.251C74.8203 12.3637 75.9034 14.9999 75.9034 18.1561C75.9034 21.3381 74.841 23.9605 72.7145 26.0199C70.588 28.0792 67.8795 29.1089 64.589 29.1089C61.3261 29.1089 58.6296 28.0792 56.5031 26.0199ZM58.8517 18.1561C58.8517 19.921 59.3924 21.3725 60.4755 22.509C61.5602 23.6454 62.9308 24.2153 64.589 24.2153C66.2747 24.2153 67.6574 23.6454 68.7421 22.509C69.8252 21.3725 70.3658 19.921 70.3658 18.1561C70.3658 16.3636 69.8183 14.8863 68.7215 13.7223C67.6246 12.5583 66.2471 11.9763 64.589 11.9763C62.9308 11.9763 61.5602 12.5583 60.4755 13.7223C59.3924 14.8863 58.8517 16.3636 58.8517 18.1561ZM78.4758 27.9948V8.19682C78.4758 7.86967 78.7427 7.60278 79.0699 7.60278H83.421C83.7465 7.60278 84.0133 7.86967 84.0133 8.19682V27.9948C84.0133 28.322 83.7465 28.5872 83.421 28.5872H79.0699C78.7427 28.5872 78.4758 28.322 78.4758 27.9948ZM98.1412 24.2153C99.5446 24.2153 100.908 23.7487 102.232 22.8206C102.391 22.7087 102.575 22.6812 102.759 22.7432C102.944 22.8051 103.076 22.9377 103.136 23.122L104.23 26.4641C104.311 26.712 104.228 26.9703 104.018 27.1253C102.224 28.4477 100.159 29.1089 97.821 29.1089C94.5581 29.1089 91.8754 28.0792 89.7764 26.0199C87.6758 23.9605 86.6271 21.3381 86.6271 18.1561C86.6271 14.9724 87.6895 12.331 89.816 10.2321C91.9425 8.13139 94.5976 7.08105 97.7814 7.08105C100.092 7.08105 102.181 7.74225 104.044 9.06465C104.261 9.21962 104.349 9.4865 104.264 9.73789L103.112 13.1644C103.049 13.3504 102.913 13.483 102.725 13.5415C102.537 13.6 102.349 13.5673 102.193 13.4485C100.893 12.467 99.4757 11.9763 97.9415 11.9763C96.2024 11.9763 94.8043 12.5652 93.7488 13.743C92.6915 14.919 92.1629 16.3774 92.1629 18.1148C92.1629 19.9072 92.7243 21.3725 93.8486 22.509C94.9713 23.6454 96.4039 24.2153 98.1412 24.2153ZM105.73 18.1561C105.73 14.9724 106.699 12.331 108.639 10.2321C110.578 8.13139 113.032 7.08105 116.002 7.08105C119.212 7.08105 121.712 8.07801 123.504 10.0702C125.297 12.0641 126.194 14.7985 126.194 18.2766C126.194 18.5108 126.19 18.7209 126.185 18.9034C126.177 19.2237 125.913 19.4802 125.593 19.4802H111.388C111.441 20.8973 111.976 22.0544 112.992 22.9498C114.008 23.8469 115.293 24.2946 116.844 24.2946C118.857 24.2946 120.443 23.5903 121.598 22.1835C121.8 21.9373 122.161 21.8943 122.414 22.0871L125.162 24.1706C125.414 24.3617 125.472 24.7164 125.293 24.9781C124.677 25.8769 123.733 26.7534 122.461 27.6057C120.963 28.6078 119.065 29.1089 116.763 29.1089C113.447 29.1089 110.78 28.0861 108.76 26.0405C106.74 23.9932 105.73 21.3657 105.73 18.1561ZM111.548 15.8677H120.575C120.522 14.585 120.081 13.5553 119.251 12.7787C118.423 12.0039 117.366 11.6165 116.081 11.6165C114.799 11.6165 113.755 12.0176 112.953 12.82C112.15 13.6224 111.682 14.6383 111.548 15.8677Z" fill="#FEFEFE"/>
<path d="M45.3642 27.9955V16.3041C45.3642 14.5616 43.9437 13.141 42.2012 13.141H38.1427V27.9955C38.1427 28.3227 37.8758 28.5879 37.5487 28.5879H33.1975C32.8721 28.5879 32.6052 28.3227 32.6052 27.9955V13.141V8.19756C32.6052 7.8704 32.8721 7.60352 33.1975 7.60352H38.1427H42.7969C47.2617 7.60352 50.9018 11.2453 50.9018 15.7083V27.9955C50.9018 28.3227 50.6349 28.5879 50.3077 28.5879H45.9566C45.6311 28.5879 45.3642 28.3227 45.3642 27.9955Z" fill="#FEFEFE"/>
</svg>
